<?xml version="1.0" encoding="utf-8"?>
<!-- Generator: Adobe Illustrator 25.4.1, SVG Export Plug-In . SVG Version: 6.00 Build 0)  -->
<svg version="1.1" id="Layer_1" xmlns="http://www.w3.org/2000/svg" xmlns:xlink="http://www.w3.org/1999/xlink" x="0px" y="0px"
	 width="1320.7px" height="720.6px" viewBox="0 0 1320.7 720.6" style="enable-background:new 0 0 1320.7 720.6;"
	 xml:space="preserve">
<style type="text/css">
	.st0{fill:url(#SVGID_1_);}
</style>
<linearGradient id="SVGID_1_" gradientUnits="userSpaceOnUse" x1="-1634.3759" y1="6943.5093" x2="-328.953" y2="6943.5093" gradientTransform="matrix(-1 0 0 -1 -319.0676 7303.792)">
	<stop  offset="0" style="stop-color:#666666"/>
	<stop  offset="0.1665" style="stop-color:#5D5D5D"/>
	<stop  offset="0.4379" style="stop-color:#454545"/>
	<stop  offset="0.7783" style="stop-color:#1D1D1D"/>
	<stop  offset="1" style="stop-color:#000000"/>
</linearGradient>
<path class="st0" d="M1266.1,10.3c27.1,0,49.2,22.1,49.2,49.2c0,10.6-3.4,20.7-9.9,29.3l0,0.4L837.7,677.6
	c-1.7,2.3-26.3,32.7-72.4,32.7c0,0,0,0,0,0c-49.1,0-75.3-36.4-77.6-39.7L483.3,392.7l-0.2-0.3c-0.4-0.7-11.5-17.5-34.5-17.5
	c-21.6,0-32.7,15.1-33.1,15.8l-0.3,0.4L296.6,539.7c-1.4,1.8-16.9,20.6-45.4,20.6c0,0,0,0,0,0c-30.3,0-46.8-22.3-48.5-24.8
	L23.1,291.3l0.3-0.2c-8.9-14.4-13.5-30.8-13.5-47.9c0-50.7,41.2-91.9,91.9-91.9c28.4,0,54.8,12.9,72.4,35.4l126.7,156l0.1,0.2
	c0.4,0.6,11.7,15,32.6,15c21.3,0,32.4-14.7,32.9-15.4l0.3-0.4l189.4-232.6c1.5-2,11.2-14,28.6-19.5c0.2-0.1,0.4-0.1,0.6-0.2
	c1.6-0.5,3.2-0.9,4.9-1.3l0.2,0c0.2-0.1,0.4-0.1,0.7-0.1c1.6-0.3,3.3-0.6,5-0.8l0,0c0.3,0,0.6-0.1,0.9-0.1c4.2-0.4,7.8-0.4,11.9,0
	c0.3,0,0.6,0.1,0.9,0.1l0.1,0c1.7,0.2,3.3,0.4,4.9,0.7c0.2,0,0.5,0.1,0.7,0.1l0.2,0c1.7,0.4,3.4,0.8,5,1.3L621,90
	c17.2,5.4,26.9,17.2,28.3,19l195.6,240.9l0.1,0.2c0,0,5.5,7.2,15.7,14.2c13.4,9.2,28.5,13.9,44.7,13.9c39.9,0,60.7-28.4,60.9-28.7
	l0.3-0.4l261-320.3c1-1.2,2-2.3,3-3.3C1240.1,15.7,1252.6,10.3,1266.1,10.3z M1288.3,82.3l0.1-0.5l1.7-2.1
	c3.4-4.1,7.5-10.9,7.5-20.2c0-17.4-14.2-31.6-31.6-31.6c-8.6,0-16.7,3.5-22.7,9.8l-0.2,0.2c-0.6,0.6-1.1,1.2-1.8,1.9L980.5,360.1
	c-2.6,3.5-27.9,35.8-75.1,35.8c-46.7,0-72.1-32-74.5-35.1L635.4,119.9l-0.1-0.2c0,0-6.9-8.9-19.6-12.9l-0.3-0.1
	c-1.1-0.3-2.3-0.7-3.5-0.9l-0.6-0.1c-1.1-0.2-2.2-0.4-3.5-0.5c-0.2,0-0.4-0.1-0.7-0.1l-0.1,0c-2.9-0.3-5.4-0.3-8.3,0l-0.1,0
	c-0.2,0-0.4,0.1-0.7,0.1c-1.3,0.1-2.4,0.3-3.5,0.5l-0.1,0c-0.2,0-0.3,0.1-0.5,0.1c-1.2,0.3-2.3,0.6-3.4,0.9l-0.4,0.1
	c-12.8,4.1-19.8,13.2-19.8,13.3l-0.3,0.3L380.5,353.2c-2.1,2.7-17.9,22.4-47,22.4c-28.8,0-44.7-19.5-46.6-22L160.3,197.6
	c-14.2-18.2-35.5-28.7-58.5-28.7c-40.9,0-74.2,33.3-74.2,74.2c0,16,5.1,31.4,14.8,44.3l5.1,6.8l-0.1,0.1L217,525.3l0.1,0.1
	c0.5,0.7,12.2,17.2,34,17.2c20.1,0,30.8-12.9,31.5-13.8l0.1-0.1l118.5-148.5c2.1-2.9,17.9-23.1,47.4-23.1
	c31.3,0,47.1,22.2,49.3,25.5l204.2,277.7l0.1,0.1c0,0.1,5.7,8.2,16.4,16.3c14,10.5,29.7,15.8,46.6,15.8c0,0,0,0,0,0
	c37.9,0,57.7-24.8,58.5-25.9l0.1-0.1L1288.3,82.3z"/>
</svg>
