<?xml version="1.0" encoding="utf-8"?>
<!-- Generator: Adobe Illustrator 25.4.1, SVG Export Plug-In . SVG Version: 6.00 Build 0)  -->
<svg version="1.1" id="Layer_1" xmlns="http://www.w3.org/2000/svg" xmlns:xlink="http://www.w3.org/1999/xlink" x="0px" y="0px"
	 width="1343.9px" height="720.6px" viewBox="0 0 1343.9 720.6" style="enable-background:new 0 0 1343.9 720.6;"
	 xml:space="preserve">
<style type="text/css">
	.st0{fill:url(#SVGID_1_);}
</style>
<linearGradient id="SVGID_1_" gradientUnits="userSpaceOnUse" x1="10.3265" y1="360.2829" x2="1333.6144" y2="360.2829">
	<stop  offset="0" style="stop-color:#666666"/>
	<stop  offset="0.1665" style="stop-color:#5D5D5D"/>
	<stop  offset="0.4379" style="stop-color:#454545"/>
	<stop  offset="0.7783" style="stop-color:#1D1D1D"/>
	<stop  offset="1" style="stop-color:#000000"/>
</linearGradient>
<path class="st0" d="M60.2,715c-27.5,0-49.9-22.4-49.9-49.9c0-10.8,3.5-21,10-29.7l0-0.4L494.5,38.7c1.8-2.3,26.6-33.1,73.4-33.1
	c0,0,0,0,0,0c49.7,0,76.4,36.9,78.6,40.2l207.1,281.7l0.2,0.3c0.4,0.7,11.6,17.8,35,17.8c21.9,0,33.1-15.4,33.6-16l0.3-0.4
	L1043,178.4c1.4-1.8,17.1-20.8,46-20.9c0,0,0,0,0,0c30.7,0,47.4,22.6,49.2,25.2l182,247.5l-0.3,0.2c9,14.6,13.7,31.2,13.7,48.5
	c0,51.4-41.8,93.2-93.2,93.2c-28.8,0-55.6-13.1-73.4-35.9l-128.4-158.1l-0.1-0.2c-0.4-0.6-11.8-15.2-33-15.2
	c-21.5,0-32.8,14.9-33.3,15.6l-0.3,0.4l-192,235.8c-1.6,2-11.4,14.2-29,19.7c-0.2,0.1-0.4,0.1-0.7,0.2c-1.6,0.5-3.3,0.9-5,1.3
	l-0.2,0c-0.2,0.1-0.4,0.1-0.7,0.1c-1.6,0.3-3.3,0.6-5.1,0.8l0,0c-0.3,0-0.6,0.1-0.9,0.1c-4.2,0.4-7.9,0.4-12.1,0
	c-0.3,0-0.6-0.1-0.9-0.1l-0.1,0c-1.7-0.2-3.4-0.4-5-0.8c-0.2,0-0.5-0.1-0.7-0.1l-0.2,0c-1.7-0.4-3.4-0.8-5.1-1.3l-0.5-0.1
	c-17.5-5.5-27.2-17.4-28.7-19.3L487.1,370.8l-0.1-0.2c0,0-5.5-7.3-15.9-14.4c-13.6-9.3-28.9-14.1-45.3-14.1
	c-40.4,0-61.5,28.8-61.7,29l-0.3,0.4L99.2,696.4c-1,1.3-2,2.4-3.1,3.4C86.6,709.6,73.8,715,60.2,715z M37.7,642.1l-0.1,0.5l-1.8,2.1
	c-3.5,4.1-7.6,11.1-7.6,20.4c0,17.6,14.4,32,32,32c8.7,0,16.9-3.5,23-9.9l0.2-0.2c0.6-0.6,1.2-1.2,1.8-2l264.4-324.5
	c2.6-3.5,28.2-36.3,76.1-36.3c47.3,0,73.1,32.4,75.5,35.5l198.3,244.1l0.1,0.2c0,0,7,9,19.8,13.1l0.3,0.1c1.2,0.4,2.4,0.7,3.6,0.9
	l0.6,0.1c1.1,0.2,2.3,0.4,3.5,0.5c0.2,0,0.4,0.1,0.7,0.1l0.1,0c3,0.3,5.5,0.3,8.5,0l0.1,0c0.2,0,0.4-0.1,0.7-0.1
	c1.3-0.1,2.5-0.3,3.6-0.5l0.1,0c0.2,0,0.3-0.1,0.5-0.1c1.2-0.3,2.4-0.6,3.5-0.9l0.4-0.1c13-4.1,20.1-13.4,20.1-13.5l0.3-0.4
	l192-235.8c2.1-2.8,18.2-22.7,47.6-22.7c29.2,0,45.3,19.8,47.2,22.3l128.4,158.1c14.4,18.5,36,29.1,59.3,29.1
	c41.5,0,75.3-33.8,75.3-75.3c0-16.3-5.2-31.8-15-44.9l-5.2-6.9l0.1-0.1l-172-234l-0.1-0.1c-0.5-0.7-12.4-17.5-34.5-17.5
	c-20.4,0-31.2,13-31.9,14l-0.1,0.1L936.9,340c-2.2,3-18.1,23.4-48.1,23.4c-31.7,0-47.8-22.5-50-25.8L632,56.1l-0.1-0.1
	c0-0.1-5.8-8.4-16.6-16.5c-14.2-10.6-30.1-16-47.3-16c0,0,0,0,0,0c-38.4,0-58.5,25.1-59.3,26.2l-0.1,0.1L37.7,642.1z"/>
</svg>
