<?xml version="1.0" encoding="utf-8"?>
<!-- Generator: Adobe Illustrator 25.4.1, SVG Export Plug-In . SVG Version: 6.00 Build 0)  -->
<svg version="1.1" id="Layer_1" xmlns="http://www.w3.org/2000/svg" xmlns:xlink="http://www.w3.org/1999/xlink" x="0px" y="0px"
	 width="1309.4px" height="702px" viewBox="0 0 1309.4 702" style="enable-background:new 0 0 1309.4 702;" xml:space="preserve">
<style type="text/css">
	.st0{fill:url(#SVGID_1_);}
</style>
<linearGradient id="SVGID_1_" gradientUnits="userSpaceOnUse" x1="-1644.2614" y1="6934.248" x2="-334.8667" y2="6934.248" gradientTransform="matrix(-1 0 0 -1 -334.8667 7285.2695)">
	<stop  offset="0" style="stop-color:#666666"/>
	<stop  offset="0.1665" style="stop-color:#5D5D5D"/>
	<stop  offset="0.4379" style="stop-color:#454545"/>
	<stop  offset="0.7783" style="stop-color:#1D1D1D"/>
	<stop  offset="1" style="stop-color:#000000"/>
</linearGradient>
<path class="st0" d="M1260,0c27.2,0,49.4,22.2,49.4,49.4c0,10.7-3.4,20.8-9.9,29.4l0,0.4L830.3,669.3c-1.8,2.3-26.4,32.8-72.7,32.8
	c0,0,0,0,0,0c-49.2,0-75.6-36.6-77.8-39.8L474.9,383.5l-0.2-0.3c-0.4-0.7-11.5-17.6-34.6-17.6c-21.7,0-32.8,15.2-33.2,15.8l-0.3,0.4
	L287.6,531c-1.4,1.8-16.9,20.6-45.5,20.6c0,0,0,0,0,0c-30.4,0-46.9-22.4-48.7-24.9L13.3,281.8l0.3-0.2C4.7,267.1,0,250.7,0,233.6
	c0-50.8,41.4-92.2,92.2-92.2c28.5,0,55,12.9,72.6,35.5l127.1,156.5l0.1,0.2c0.4,0.6,11.7,15.1,32.6,15.1c21.3,0,32.5-14.8,33-15.4
	l0.3-0.4l190-233.3c1.5-2,11.2-14,28.7-19.5c0.2-0.1,0.4-0.1,0.6-0.2c1.6-0.5,3.2-0.9,4.9-1.3l0.2,0c0.2-0.1,0.4-0.1,0.7-0.1
	c1.6-0.3,3.3-0.6,5-0.8l0,0c0.3,0,0.6-0.1,0.9-0.1c4.2-0.4,7.8-0.4,12,0c0.3,0,0.6,0.1,0.9,0.1l0.1,0c1.7,0.2,3.3,0.4,4.9,0.8
	c0.2,0,0.5,0.1,0.7,0.1l0.2,0c1.7,0.4,3.4,0.8,5,1.3l0.5,0.1c17.3,5.4,27,17.2,28.4,19.1l196.2,241.6l0.1,0.2c0,0,5.5,7.2,15.7,14.3
	c13.5,9.2,28.6,13.9,44.8,13.9c40,0,60.9-28.5,61.1-28.7l0.3-0.4l261.8-321.3c1-1.3,2-2.3,3-3.3C1233.9,5.4,1246.5,0,1260,0z
	 M1282.3,72.2l0.1-0.5l1.7-2.1c3.4-4.1,7.5-10.9,7.5-20.2c0-17.5-14.2-31.7-31.7-31.7c-8.6,0-16.7,3.5-22.8,9.8l-0.2,0.2
	c-0.6,0.6-1.2,1.2-1.8,2L973.6,350.8c-2.6,3.5-28,35.9-75.3,35.9c-46.8,0-72.3-32.1-74.7-35.2L627.4,109.9l-0.1-0.2
	c0,0-6.9-8.9-19.6-12.9l-0.3-0.1c-1.1-0.4-2.3-0.7-3.5-0.9l-0.6-0.1c-1.1-0.2-2.2-0.4-3.5-0.5c-0.2,0-0.4-0.1-0.7-0.1l-0.1,0
	c-2.9-0.3-5.4-0.3-8.4,0l-0.1,0c-0.2,0-0.4,0.1-0.7,0.1c-1.3,0.1-2.4,0.3-3.5,0.5l-0.1,0c-0.2,0-0.3,0.1-0.5,0.1
	c-1.2,0.3-2.4,0.6-3.4,0.9l-0.4,0.1c-12.9,4.1-19.8,13.3-19.9,13.4l-0.3,0.4L371.8,343.9c-2.1,2.7-18,22.5-47.1,22.5
	c-28.8,0-44.9-19.6-46.7-22l-127-156.4c-14.3-18.3-35.7-28.8-58.7-28.8c-41.1,0-74.5,33.4-74.5,74.5c0,16.1,5.1,31.5,14.8,44.5
	l5.1,6.8l-0.1,0.1l170.2,231.5l0.1,0.1c0.5,0.7,12.2,17.3,34.1,17.3c20.1,0,30.8-12.9,31.6-13.8l0.1-0.1l118.8-148.9
	c2.1-2.9,17.9-23.1,47.5-23.1c31.4,0,47.3,22.3,49.4,25.6L694.3,652l0.1,0.1c0,0.1,5.7,8.3,16.5,16.3c14,10.5,29.8,15.8,46.8,15.8
	c0,0,0,0,0,0c38,0,57.8-24.9,58.7-25.9l0.1-0.1L1282.3,72.2z"/>
</svg>
