<?xml version="1.0" encoding="utf-8"?>
<!-- Generator: Adobe Illustrator 25.4.1, SVG Export Plug-In . SVG Version: 6.00 Build 0)  -->
<svg version="1.1" id="Layer_1" xmlns="http://www.w3.org/2000/svg" xmlns:xlink="http://www.w3.org/1999/xlink" x="0px" y="0px"
	 width="1967px" height="1052.7px" viewBox="0 0 1967 1052.7" style="enable-background:new 0 0 1967 1052.7;" xml:space="preserve"
	>
<style type="text/css">
	.st0{fill:url(#SVGID_1_);}
</style>
<linearGradient id="SVGID_1_" gradientUnits="userSpaceOnUse" x1="37.7054" y1="592.3283" x2="1932.9054" y2="592.3283" gradientTransform="matrix(1 0 0 1 0 -66)">
	<stop  offset="0" style="stop-color:#666666"/>
	<stop  offset="0.1665" style="stop-color:#5D5D5D"/>
	<stop  offset="0.4379" style="stop-color:#454545"/>
	<stop  offset="0.7783" style="stop-color:#1D1D1D"/>
	<stop  offset="1" style="stop-color:#000000"/>
</linearGradient>
<path class="st0" d="M109.2,1034.4c-39.4,0-71.5-32.1-71.5-71.5c0-15.4,5-30.1,14.4-42.6l0.1-0.5l679-854.1
	c2.5-3.3,38.1-47.4,105.1-47.4l0,0c71.2,0,109.4,52.9,112.6,57.6l296.6,403.5l0.3,0.4c0.6,1,16.7,25.4,50.1,25.4
	c31.4,0,47.4-22,48.1-22.9l0.5-0.6l172.2-215.8c2.1-2.6,24.5-29.9,65.9-29.9l0,0c44,0,67.9,32.4,70.5,36l260.6,354.5l-0.4,0.4
	c12.9,20.9,19.6,44.7,19.6,69.5c0,73.6-59.9,133.4-133.4,133.4c-41.3,0-79.6-18.7-105.1-51.4l-183.9-226.5l-0.2-0.2
	c-0.6-0.8-16.9-21.8-47.3-21.8c-30.9,0-47,21.4-47.7,22.3l-0.4,0.5l-275,337.8c-2.2,2.9-16.3,20.3-41.5,28.3
	c-0.3,0.1-0.6,0.2-0.9,0.3c-2.3,0.7-4.7,1.3-7.1,1.8l-0.2,0.1c-0.3,0.1-0.6,0.1-1,0.2c-2.3,0.5-4.7,0.8-7.3,1.1h-0.1
	c-0.4,0.1-0.8,0.1-1.2,0.2c-6.1,0.6-11.3,0.6-17.3,0c-0.5,0-0.9-0.1-1.3-0.2h-0.2c-2.4-0.3-4.8-0.6-7.1-1.1c-0.3-0.1-0.7-0.1-1-0.2
	l-0.3-0.1c-2.5-0.5-4.9-1.2-7.2-1.9l-0.7-0.2c-25-7.9-39-25-41.1-27.6l-284-349.7l-0.2-0.2c0-0.1-7.9-10.5-22.8-20.6
	c-19.5-13.4-41.3-20.1-64.9-20.1c-57.9,0-88.1,41.2-88.4,41.6l-0.5,0.6l-378.7,464.9c-1.5,1.8-2.9,3.4-4.4,4.8
	C146.9,1026.6,128.6,1034.4,109.2,1034.4z M76.8,929.9l-0.1,0.7l-2.5,3c-5,5.9-10.9,15.8-10.9,29.3c0,25.3,20.6,45.8,45.8,45.8
	c12.5,0,24.2-5,33-14.2l0.3-0.3c0.8-0.8,1.7-1.7,2.6-2.8l378.7-464.8c3.8-5.1,40.5-51.9,109-51.9c67.7,0,104.7,46.4,108.1,50.9
	l284,349.7l0.2,0.2c0,0.1,10,12.9,28.4,18.7l0.5,0.1c1.7,0.5,3.4,0.9,5.1,1.3l0.9,0.2c1.5,0.3,3.2,0.6,5,0.8c0.3,0,0.6,0.1,1,0.1
	h0.1c4.3,0.4,7.8,0.4,12.1,0h0.1c0.3,0,0.6-0.1,1-0.1c1.8-0.2,3.5-0.5,5.1-0.8h0.2c0.2-0.1,0.5-0.1,0.7-0.2c1.7-0.4,3.4-0.8,5-1.3
	l0.6-0.2c18.7-5.9,28.7-19.2,28.8-19.3l0.4-0.5l274.9-337.7c3-3.9,26-32.5,68.2-32.5c41.8,0,64.9,28.4,67.6,31.9l183.9,226.4
	c20.6,26.5,51.6,41.6,85,41.6c59.4,0,107.8-48.4,107.8-107.8c0-23.3-7.4-45.5-21.5-64.4l-7.4-9.9l0.2-0.1l-246.4-335.1l-0.1-0.2
	c-0.7-1-17.7-25-49.4-25c-29.1,0-44.7,18.7-45.7,20l-0.1,0.2l-172,215.6c-3.1,4.3-26,33.5-68.8,33.5c-45.4,0-68.4-32.3-71.5-37
	L928,90.6l-0.1-0.2c-0.1-0.1-8.3-12-23.8-23.6c-20.3-15.2-43.1-22.9-67.7-22.9l0,0c-55,0-83.7,36-84.9,37.5l-0.1,0.1L76.8,929.9z"/>
</svg>
