<?xml version="1.0" encoding="utf-8"?>
<!-- Generator: Adobe Illustrator 25.4.1, SVG Export Plug-In . SVG Version: 6.00 Build 0)  -->
<svg version="1.1" id="Layer_1" xmlns="http://www.w3.org/2000/svg" xmlns:xlink="http://www.w3.org/1999/xlink" x="0px" y="0px"
	 width="1888px" height="1012.3px" viewBox="0 0 1888 1012.3" style="enable-background:new 0 0 1888 1012.3;" xml:space="preserve"
	>
<style type="text/css">
	.st0{fill:url(#SVGID_1_);}
</style>
<linearGradient id="SVGID_1_" gradientUnits="userSpaceOnUse" x1="-1644.2614" y1="7089.3657" x2="243.7592" y2="7089.3657" gradientTransform="matrix(-1 0 0 -1 243.7592 7595.5049)">
	<stop  offset="0" style="stop-color:#666666"/>
	<stop  offset="0.1665" style="stop-color:#5D5D5D"/>
	<stop  offset="0.4379" style="stop-color:#454545"/>
	<stop  offset="0.7783" style="stop-color:#1D1D1D"/>
	<stop  offset="1" style="stop-color:#000000"/>
</linearGradient>
<path class="st0" d="M1816.8,0c39.3,0,71.2,31.9,71.2,71.2c0,15.4-4.9,29.9-14.3,42.4l-0.1,0.5L1197.2,965
	c-2.5,3.3-38,47.3-104.8,47.3c0,0,0,0,0,0c-70.9,0-109-52.7-112.2-57.4L684.7,553l-0.3-0.4c-0.6-1-16.6-25.3-49.9-25.3
	c-31.3,0-47.3,21.9-47.9,22.8l-0.5,0.6L414.6,765.7c-2,2.6-24.4,29.7-65.7,29.8c0,0,0,0,0,0c-43.8,0-67.7-32.3-70.2-35.9L19.1,406.4
	l0.4-0.4C6.7,385.1,0,361.4,0,336.8c0-73.3,59.6-132.9,132.9-132.9c41.1,0,79.3,18.7,104.7,51.2l183.2,225.6l0.2,0.2
	c0.6,0.8,16.9,21.7,47.1,21.7c30.7,0,46.9-21.3,47.5-22.2l0.4-0.5L790,143.5c2.2-2.9,16.2-20.2,41.3-28.2c0.3-0.1,0.6-0.2,0.9-0.3
	c2.2-0.7,4.6-1.3,7.1-1.8l0.2-0.1c0.3-0.1,0.6-0.1,0.9-0.2c2.3-0.5,4.7-0.8,7.2-1.1l0.1,0c0.4-0.1,0.8-0.1,1.2-0.2
	c6.1-0.6,11.2-0.6,17.3,0c0.5,0,0.9,0.1,1.3,0.2l0.2,0c2.4,0.3,4.8,0.6,7.1,1.1c0.3,0.1,0.7,0.1,1,0.2l0.3,0.1
	c2.5,0.5,4.9,1.1,7.2,1.9l0.7,0.2c24.9,7.9,38.9,24.9,40.9,27.5l282.9,348.4l0.2,0.2c0,0.1,7.9,10.4,22.7,20.6
	c19.4,13.3,41.2,20.1,64.6,20.1c57.7,0,87.8-41,88.1-41.4l0.5-0.6l377.5-463.3c1.5-1.8,2.9-3.4,4.4-4.8
	C1779.2,7.8,1797.4,0,1816.8,0z M1849,104.1l0.1-0.7l2.5-3c5-5.9,10.9-15.8,10.9-29.2c0-25.2-20.5-45.7-45.7-45.7
	c-12.5,0-24.1,5-32.9,14.1l-0.3,0.3c-0.8,0.8-1.7,1.7-2.6,2.8l-377.2,463c-3.7,5-40.3,51.7-108.6,51.7
	c-67.5,0-104.3-46.2-107.7-50.7L904.7,158.5l-0.2-0.2c0-0.1-10-12.9-28.3-18.7l-0.5-0.1c-1.7-0.5-3.4-0.9-5.1-1.3l-0.9-0.2
	c-1.5-0.3-3.2-0.6-5-0.8c-0.3,0-0.6-0.1-0.9-0.1l-0.1,0c-4.2-0.4-7.8-0.4-12.1,0l-0.1,0c-0.3,0-0.6,0.1-1,0.1
	c-1.8,0.2-3.5,0.5-5.1,0.8l-0.2,0c-0.2,0.1-0.5,0.1-0.7,0.2c-1.7,0.4-3.4,0.8-5,1.3l-0.6,0.2c-18.6,5.9-28.6,19.1-28.7,19.3
	l-0.4,0.5L536.1,495.8c-3,3.9-25.9,32.4-67.9,32.4c-41.6,0-64.7-28.3-67.4-31.8L217.6,270.9c-20.6-26.4-51.4-41.5-84.7-41.5
	c-59.2,0-107.4,48.2-107.4,107.4c0,23.2,7.4,45.4,21.4,64.1l7.4,9.8l-0.2,0.1l245.5,333.9l0.1,0.2c0.7,1,17.6,24.9,49.2,24.9
	c29,0,44.5-18.6,45.5-19.9l0.1-0.2L566,535c3.1-4.2,25.9-33.3,68.6-33.3c45.3,0,68.1,32.1,71.3,36.9l295.3,401.6l0.1,0.2
	c0.1,0.1,8.3,11.9,23.8,23.5c20.3,15.2,42.9,22.8,67.4,22.8c0,0,0,0,0,0c54.8,0,83.4-35.9,84.6-37.4l0.1-0.1L1849,104.1z"/>
</svg>
