<?xml version="1.0" encoding="utf-8"?>
<!-- Generator: Adobe Illustrator 25.4.1, SVG Export Plug-In . SVG Version: 6.00 Build 0)  -->
<svg version="1.1" id="Layer_1" xmlns="http://www.w3.org/2000/svg" xmlns:xlink="http://www.w3.org/1999/xlink" x="0px" y="0px"
	 width="1921.3px" height="1030.1px" viewBox="0 0 1921.3 1030.1" style="enable-background:new 0 0 1921.3 1030.1;"
	 xml:space="preserve">
<style type="text/css">
	.st0{fill:url(#SVGID_1_);}
</style>
<linearGradient id="SVGID_1_" gradientUnits="userSpaceOnUse" x1="0" y1="515.0557" x2="1921.2803" y2="515.0557">
	<stop  offset="0" style="stop-color:#666666"/>
	<stop  offset="0.1665" style="stop-color:#5D5D5D"/>
	<stop  offset="0.4379" style="stop-color:#454545"/>
	<stop  offset="0.7783" style="stop-color:#1D1D1D"/>
	<stop  offset="1" style="stop-color:#000000"/>
</linearGradient>
<path class="st0" d="M72.5,1030.1c-40,0-72.5-32.5-72.5-72.5c0-15.6,5-30.5,14.6-43.2l0.1-0.5L703,48.1C705.6,44.8,741.7,0,809.6,0
	c0,0,0,0,0,0c72.2,0,110.9,53.6,114.2,58.4l300.7,409l0.3,0.4c0.6,1,16.9,25.8,50.8,25.8c31.9,0,48.1-22.3,48.8-23.2l0.5-0.7
	L1499.3,251c2.1-2.7,24.8-30.3,66.8-30.3c0,0,0,0,0,0c44.6,0,68.9,32.8,71.4,36.5l264.2,359.4l-0.4,0.4
	c13.1,21.2,19.9,45.3,19.9,70.4c0,74.6-60.7,135.3-135.3,135.3c-41.9,0-80.7-19-106.6-52.1L1493,540.9l-0.2-0.2
	c-0.6-0.8-17.2-22.1-47.9-22.1c-31.3,0-47.7,21.7-48.4,22.6l-0.4,0.6l-278.7,342.4c-2.3,3-16.5,20.6-42,28.7c-0.3,0.1-0.6,0.2-1,0.3
	c-2.3,0.7-4.7,1.3-7.2,1.9l-0.2,0.1c-0.3,0.1-0.6,0.1-1,0.2c-2.3,0.5-4.8,0.8-7.4,1.1l-0.1,0c-0.4,0.1-0.8,0.1-1.3,0.2
	c-6.2,0.6-11.4,0.6-17.6,0c-0.5,0-0.9-0.1-1.3-0.2l-0.2,0c-2.5-0.3-4.9-0.6-7.2-1.1c-0.3-0.1-0.7-0.1-1-0.2l-0.3-0.1
	c-2.5-0.5-5-1.2-7.3-1.9l-0.7-0.2c-25.4-8-39.5-25.3-41.6-28L692.3,530.3l-0.2-0.2c0-0.1-8-10.6-23.1-20.9
	c-19.8-13.6-41.9-20.4-65.8-20.4c-58.7,0-89.3,41.8-89.7,42.2l-0.5,0.6L129,1003c-1.5,1.8-3,3.4-4.4,4.9
	C110.7,1022.2,92.2,1030.1,72.5,1030.1z M39.7,924.2l-0.1,0.7l-2.6,3C32,934,26,944,26,957.7c0,25.6,20.8,46.5,46.5,46.5
	c12.7,0,24.6-5.1,33.5-14.4l0.3-0.3c0.9-0.8,1.7-1.7,2.6-2.9l383.9-471.2c3.8-5.1,41-52.6,110.5-52.6c68.7,0,106.1,47,109.6,51.6
	l287.9,354.5l0.2,0.2c0,0.1,10.2,13.1,28.8,19l0.5,0.1c1.7,0.5,3.4,1,5.2,1.3l0.9,0.2c1.6,0.3,3.3,0.6,5.1,0.8c0.3,0,0.7,0.1,1,0.1
	l0.1,0c4.3,0.4,7.9,0.4,12.3,0l0.1,0c0.3,0,0.6-0.1,1-0.1c1.9-0.2,3.6-0.5,5.2-0.8l0.2,0c0.2-0.1,0.5-0.1,0.7-0.2
	c1.7-0.4,3.5-0.8,5.1-1.3l0.6-0.2c18.9-6,29.1-19.5,29.2-19.6l0.4-0.5l278.7-342.4c3-4,26.4-33,69.1-33c42.3,0,65.8,28.8,68.6,32.3
	l186.4,229.5c20.9,26.8,52.3,42.2,86.1,42.2c60.2,0,109.3-49,109.3-109.3c0-23.6-7.5-46.2-21.8-65.2l-7.5-10l0.2-0.1l-249.8-339.7
	l-0.1-0.2c-0.7-1-17.9-25.4-50.1-25.3c-29.5,0-45.3,18.9-46.3,20.3l-0.1,0.2l-174.4,218.5c-3.2,4.3-26.3,33.9-69.8,33.9
	c-46.1,0-69.3-32.7-72.5-37.5L902.6,73.4l-0.1-0.2c-0.1-0.1-8.4-12.1-24.2-23.9C857.6,33.8,834.6,26,809.6,26c0,0,0,0,0,0
	c-55.8,0-84.9,36.5-86.1,38.1l-0.1,0.1L39.7,924.2z"/>
</svg>
