<svg xmlns="http://www.w3.org/2000/svg" viewBox="0 0 1498.18 346.24"><defs><style>.cls-1{fill:#fff;}</style></defs><g id="Layer_2" data-name="Layer 2"><g id="Capa_1" data-name="Capa 1"><path class="cls-1" d="M436.56,330.94a16.57,16.57,0,0,1-6.48-6.41,19.57,19.57,0,0,1,0-18.56,16.69,16.69,0,0,1,6.48-6.38,19,19,0,0,1,9.36-2.28,18.23,18.23,0,0,1,8.16,1.78,13.62,13.62,0,0,1,5.67,5.2l-3.56,2.42a11.06,11.06,0,0,0-4.43-3.93,13.16,13.16,0,0,0-5.84-1.31,13.85,13.85,0,0,0-6.88,1.71,12.13,12.13,0,0,0-4.76,4.87,16,16,0,0,0,0,14.4,12.09,12.09,0,0,0,4.76,4.83,13.85,13.85,0,0,0,6.88,1.71,13.41,13.41,0,0,0,5.84-1.27,10.84,10.84,0,0,0,4.43-3.9l3.56,2.42a13.48,13.48,0,0,1-5.71,5.2,18.1,18.1,0,0,1-8.12,1.78A19,19,0,0,1,436.56,330.94Z"/><path class="cls-1" d="M486.7,299.12a17.05,17.05,0,0,1,8.22-1.81v4.63l-1.14-.06q-5.58,0-8.73,3.42t-3.15,9.6v18h-4.77v-35.3h4.57v6.91A11.5,11.5,0,0,1,486.7,299.12Z"/><path class="cls-1" d="M542,316.71H512.43a12.62,12.62,0,0,0,4.23,8.89,14,14,0,0,0,9.67,3.39,15.31,15.31,0,0,0,6-1.17,13.3,13.3,0,0,0,4.76-3.46l2.69,3.09a15.1,15.1,0,0,1-5.88,4.29,21.1,21.1,0,0,1-17.38-.84,16.66,16.66,0,0,1-6.54-6.41,18.22,18.22,0,0,1-2.35-9.26,18.92,18.92,0,0,1,2.25-9.26,16.32,16.32,0,0,1,6.17-6.38,17.26,17.26,0,0,1,8.83-2.28,17.09,17.09,0,0,1,8.79,2.28,16.3,16.3,0,0,1,6.11,6.35,19.13,19.13,0,0,1,2.21,9.29Zm-25.6-12a12.84,12.84,0,0,0-3.93,8.49h25a12.75,12.75,0,0,0-3.93-8.49,13,13,0,0,0-17.18,0Z"/><path class="cls-1" d="M581.77,300.77c2.45,2.3,3.69,5.72,3.69,10.23v21.88h-4.57v-5.5a11,11,0,0,1-4.73,4.3,16.68,16.68,0,0,1-7.42,1.54c-3.93,0-7.07-.94-9.39-2.82a9.7,9.7,0,0,1-.24-14.7q3.25-2.74,10.37-2.75h11.21V310.8c0-3-.85-5.36-2.55-6.94s-4.18-2.39-7.45-2.39a18.88,18.88,0,0,0-6.44,1.11,16.3,16.3,0,0,0-5.3,3.05l-2.15-3.55a19.06,19.06,0,0,1,6.44-3.53,25.35,25.35,0,0,1,7.92-1.24Q578.08,297.31,581.77,300.77Zm-5.37,26.84a11,11,0,0,0,4.29-5.33v-5.77H569.62q-9.06,0-9.06,6.31a5.77,5.77,0,0,0,2.34,4.86,10.68,10.68,0,0,0,6.58,1.78A12.51,12.51,0,0,0,576.4,327.61Z"/><path class="cls-1" d="M625.05,330.74a9,9,0,0,1-3.32,1.84,13.22,13.22,0,0,1-4.13.64q-5,0-7.65-2.69T607.27,323V301.61H601v-4h6.31v-7.72H612v7.72h10.74v4H612v21.07a6.68,6.68,0,0,0,1.58,4.8,6,6,0,0,0,4.53,1.64,8.56,8.56,0,0,0,2.85-.47,7.06,7.06,0,0,0,2.39-1.34Z"/><path class="cls-1" d="M641.7,288.86a3.33,3.33,0,0,1-1-2.42,3.22,3.22,0,0,1,1-2.35,3.38,3.38,0,0,1,2.48-1,3.42,3.42,0,0,1,2.48,1,3.08,3.08,0,0,1,1,2.31,3.51,3.51,0,0,1-6,2.49Zm.07,8.72h4.76v35.3h-4.76Z"/><path class="cls-1" d="M697.54,297.58l-15.71,35.3h-4.9l-15.63-35.3h5l13.22,30.07,13.36-30.07Z"/><path class="cls-1" d="M742,316.71H712.5a12.62,12.62,0,0,0,4.23,8.89A14,14,0,0,0,726.4,329a15.31,15.31,0,0,0,6-1.17,13.3,13.3,0,0,0,4.76-3.46l2.69,3.09a15.1,15.1,0,0,1-5.88,4.29,21.1,21.1,0,0,1-17.38-.84,16.66,16.66,0,0,1-6.54-6.41,18.22,18.22,0,0,1-2.35-9.26A18.92,18.92,0,0,1,710,306a16.32,16.32,0,0,1,6.17-6.38,17.26,17.26,0,0,1,8.83-2.28,17.09,17.09,0,0,1,8.79,2.28,16.3,16.3,0,0,1,6.11,6.35,19.13,19.13,0,0,1,2.21,9.29Zm-25.6-12a12.84,12.84,0,0,0-3.93,8.49h25a12.75,12.75,0,0,0-3.93-8.49,13,13,0,0,0-17.18,0Z"/><path class="cls-1" d="M808.48,300.77c2.46,2.3,3.69,5.72,3.69,10.23v21.88h-4.56v-5.5a11,11,0,0,1-4.74,4.3,16.67,16.67,0,0,1-7.41,1.54q-5.91,0-9.4-2.82a9.69,9.69,0,0,1-.23-14.7Q789.09,313,796.2,313h11.2V310.8c0-3-.85-5.36-2.55-6.94s-4.18-2.39-7.45-2.39a18.92,18.92,0,0,0-6.44,1.11,16.4,16.4,0,0,0-5.3,3.05l-2.15-3.55a19.16,19.16,0,0,1,6.44-3.53,25.35,25.35,0,0,1,7.92-1.24Q804.79,297.31,808.48,300.77Zm-5.37,26.84a11,11,0,0,0,4.29-5.33v-5.77H796.33q-9.06,0-9.06,6.31a5.76,5.76,0,0,0,2.35,4.86,10.68,10.68,0,0,0,6.58,1.78A12.47,12.47,0,0,0,803.11,327.61Z"/><path class="cls-1" d="M866,297.58v31q0,9-4.4,13.32t-13.25,4.33a29.68,29.68,0,0,1-9.3-1.44,19.3,19.3,0,0,1-7.15-4l2.42-3.62a18.15,18.15,0,0,0,6.21,3.56,23.13,23.13,0,0,0,7.68,1.27q6.7,0,9.87-3.12t3.15-9.7v-4.5a14.38,14.38,0,0,1-5.8,5.11,18,18,0,0,1-8,1.74,18.77,18.77,0,0,1-9-2.18,16,16,0,0,1-6.38-6.11,17.21,17.21,0,0,1-2.32-8.89,17,17,0,0,1,2.32-8.86,16,16,0,0,1,6.34-6,19,19,0,0,1,9.06-2.15,18,18,0,0,1,8.12,1.81,14.61,14.61,0,0,1,5.84,5.24v-6.78Zm-11.14,28.09a11.92,11.92,0,0,0,4.79-4.6,13.14,13.14,0,0,0,1.72-6.71,13,13,0,0,0-1.72-6.68,11.94,11.94,0,0,0-4.76-4.56,14.39,14.39,0,0,0-6.95-1.65,14.58,14.58,0,0,0-6.88,1.61,11.77,11.77,0,0,0-4.76,4.57,14,14,0,0,0,0,13.42,12,12,0,0,0,4.76,4.6,14.25,14.25,0,0,0,6.88,1.64A14.46,14.46,0,0,0,854.86,325.67Z"/><path class="cls-1" d="M918.15,316.71H888.61a12.62,12.62,0,0,0,4.23,8.89,14.05,14.05,0,0,0,9.67,3.39,15.31,15.31,0,0,0,6-1.17,13.3,13.3,0,0,0,4.76-3.46l2.69,3.09a15.1,15.1,0,0,1-5.88,4.29,21.1,21.1,0,0,1-17.38-.84,16.66,16.66,0,0,1-6.54-6.41,18.22,18.22,0,0,1-2.35-9.26A18.92,18.92,0,0,1,886.1,306a16.32,16.32,0,0,1,6.17-6.38,17.26,17.26,0,0,1,8.83-2.28,17.09,17.09,0,0,1,8.79,2.28,16.23,16.23,0,0,1,6.11,6.35,19.13,19.13,0,0,1,2.21,9.29Zm-25.61-12a12.84,12.84,0,0,0-3.93,8.49h25a12.75,12.75,0,0,0-3.93-8.49,13,13,0,0,0-17.18,0Z"/><path class="cls-1" d="M964.56,301.17q3.91,3.85,3.92,11.24v20.47h-4.76v-20c0-3.67-.92-6.46-2.76-8.39s-4.45-2.88-7.85-2.88a12.08,12.08,0,0,0-9,3.39q-3.32,3.39-3.32,9.36v18.52H936v-35.3h4.56v6.51a13.3,13.3,0,0,1,5.4-5,17.39,17.39,0,0,1,8-1.78Q960.63,297.31,964.56,301.17Z"/><path class="cls-1" d="M994.89,330.94a16.57,16.57,0,0,1-6.48-6.41,19.57,19.57,0,0,1,0-18.56,16.69,16.69,0,0,1,6.48-6.38,19,19,0,0,1,9.36-2.28,18.23,18.23,0,0,1,8.16,1.78,13.62,13.62,0,0,1,5.67,5.2l-3.56,2.42a11.06,11.06,0,0,0-4.43-3.93,13.16,13.16,0,0,0-5.84-1.31,13.85,13.85,0,0,0-6.88,1.71,12.13,12.13,0,0,0-4.76,4.87,16,16,0,0,0,0,14.4,12.09,12.09,0,0,0,4.76,4.83,13.85,13.85,0,0,0,6.88,1.71,13.41,13.41,0,0,0,5.84-1.27,10.84,10.84,0,0,0,4.43-3.9l3.56,2.42a13.48,13.48,0,0,1-5.71,5.2,18.1,18.1,0,0,1-8.12,1.78A19,19,0,0,1,994.89,330.94Z"/><path class="cls-1" d="M1064.59,297.58l-17.65,39.53q-2.14,5-5,7.05a11.08,11.08,0,0,1-6.78,2.08,13.71,13.71,0,0,1-4.76-.81,10.31,10.31,0,0,1-3.83-2.41l2.22-3.56a8.78,8.78,0,0,0,6.44,2.69,6.47,6.47,0,0,0,4.13-1.35,12.18,12.18,0,0,0,3.19-4.56l1.54-3.42-15.77-35.24h5l13.29,30,13.29-30Z"/><path class="cls-1" d="M526.44,192.57a66.8,66.8,0,0,1-26.75-25q-9.65-16-9.64-36.26t9.64-36.26a66.87,66.87,0,0,1,26.75-25q17.12-9,38.67-9t38.54,9a67.17,67.17,0,0,1,26.62,25q9.63,16,9.63,36.26t-9.63,36.26a67.1,67.1,0,0,1-26.62,25q-17,9-38.54,9T526.44,192.57Zm63.64-33.72q9.76-10.26,9.76-27.51t-9.76-27.51q-9.76-10.27-25-10.27T540,103.83q-9.88,10.28-9.88,27.51T540,158.85q9.9,10.28,25.11,10.27T590.08,158.85Z"/><path class="cls-1" d="M803.7,63.13V199.55H766.17V183.32a52.29,52.29,0,0,1-18.76,13.56,59,59,0,0,1-23.58,4.69q-26.88,0-42.6-15.46t-15.72-45.9V63.13h39.56v71.25q0,33,27.63,33,14.2,0,22.82-9.25t8.63-27.51V63.13Z"/><path class="cls-1" d="M964.33,76.32q15.58,15.21,15.59,45.13v78.1H940.37v-72q0-16.23-7.11-24.22t-20.53-8q-15,0-23.84,9.25T880,132.1v67.45H840.46V63.13h37.78v16A52.44,52.44,0,0,1,897.77,65.8a67.94,67.94,0,0,1,25.61-4.69Q948.73,61.11,964.33,76.32Z"/><path class="cls-1" d="M1103.65,193a40.44,40.44,0,0,1-14.32,6.47,72.86,72.86,0,0,1-17.88,2.15q-24.35,0-37.65-12.42t-13.31-36.51v-56h-21V66.18h21V33H1060V66.18h34V96.6h-34v55.53q0,8.63,4.44,13.31t12.55,4.69a25.35,25.35,0,0,0,16-5.07Z"/><path class="cls-1" d="M1229.67,76.19q17,15.09,17,45.52v77.84h-37v-17q-11.16,19-41.59,19-15.72,0-27.25-5.32t-17.63-14.71a38.3,38.3,0,0,1-6.08-21.29q0-19,14.33-29.92t44.24-10.91h31.44q0-12.93-7.86-19.9t-23.58-7A68.84,68.84,0,0,0,1154.24,96a56.75,56.75,0,0,0-17.88,9.25l-14.2-27.63a85.57,85.57,0,0,1,26.75-12.17A119.62,119.62,0,0,1,1181,61.11Q1212.67,61.11,1229.67,76.19ZM1196,170.26a25.67,25.67,0,0,0,11.15-13.82V142.5H1180q-24.35,0-24.34,16a14.19,14.19,0,0,0,6,12q6,4.44,16.35,4.44A34.48,34.48,0,0,0,1196,170.26Z"/><path class="cls-1" d="M1284.43,37.78a20.56,20.56,0,0,1-6.84-15.72,20.58,20.58,0,0,1,6.84-15.72Q1291.28,0,1302.18,0t17.75,6.08a19.54,19.54,0,0,1,6.85,15.22,21.54,21.54,0,0,1-6.85,16.35q-6.84,6.47-17.75,6.47T1284.43,37.78Zm-2,25.35H1322V199.55H1282.4Z"/><path class="cls-1" d="M1482.58,76.32q15.6,15.21,15.6,45.13v78.1h-39.56v-72q0-16.23-7.1-24.22t-20.54-8q-15,0-23.83,9.25t-8.87,27.51v67.45h-39.56V63.13h37.78v16A52.44,52.44,0,0,1,1416,65.8a67.93,67.93,0,0,1,25.6-4.69Q1467,61.11,1482.58,76.32Z"/><path class="cls-1" d="M470,154l0,0-64.55-87.8a19.43,19.43,0,0,0-15.29-7.81,18.57,18.57,0,0,0-14.22,6.37l-43.85,55a19,19,0,0,1-30.46-.78L226.13,16.25S217.16,3,200.11,3A31.64,31.64,0,0,0,175.9,13.8L3.56,230.57c0,.05,0,.09,0,.14A14.79,14.79,0,0,0,0,240.26a14.91,14.91,0,0,0,25.7,10.32,10.61,10.61,0,0,0,.9-1l96.49-118.43a32.47,32.47,0,0,1,50.13-.24l72.3,89a18.74,18.74,0,0,0,8.87,5.95l.16.05c.5.15,1,.28,1.57.4l.26.06c.5.1,1,.17,1.55.23l.3,0c.61.06,1.24.1,1.89.1s1.28,0,1.89-.1l.29,0c.54-.06,1.06-.13,1.57-.23l.26-.06c.53-.12,1.05-.25,1.55-.4l.19-.06a18.82,18.82,0,0,0,9-6.1l53-65.14,17-20.92a19.07,19.07,0,0,1,29.45-.14l46.81,57.64A30.68,30.68,0,0,0,470,154Z"/></g></g></svg>