<svg width="53" height="53" viewBox="0 0 53 53" fill="none" xmlns="http://www.w3.org/2000/svg">
<path d="M21.0758 24.0334C21.5904 23.6607 21.8388 23.0455 21.8388 22.1997C21.8566 21.7974 21.7738 21.4011 21.5963 21.0403C21.4366 20.7504 21.2 20.5079 20.9102 20.3364C20.6096 20.1541 20.2758 20.0335 19.9282 19.9815C19.5497 19.9105 19.1652 19.875 18.7866 19.8809H14.6282V24.5953H19.1297C19.9046 24.6012 20.5612 24.4119 21.0758 24.0334ZM21.7738 28.2923C21.1941 27.8487 20.4192 27.6298 19.455 27.6298H14.6164V33.1901H19.3604C19.804 33.1901 20.2122 33.1487 20.6085 33.0658C20.9835 32.9925 21.3409 32.8479 21.6614 32.64C21.9631 32.4448 22.2056 32.1786 22.389 31.8355C22.5664 31.4924 22.6551 31.0547 22.6551 30.5282C22.6551 29.4812 22.3594 28.7419 21.7738 28.2923ZM26.5 0C11.8658 0 0 11.8658 0 26.5C0 41.1342 11.8658 53 26.5 53C41.1342 53 53 41.1342 53 26.5C53 11.8658 41.1342 0 26.5 0ZM31.6166 16.9706H39.8032V18.9641H31.6166V16.9706ZM26.5 33.4089C26.1171 34.1358 25.5703 34.7636 24.9029 35.2426C24.2049 35.7277 23.43 36.0826 22.6078 36.2896C21.7476 36.5201 20.8602 36.6335 19.9696 36.6268H10.1741V16.4501H19.6975C20.6617 16.4501 21.5372 16.5388 22.3357 16.7045C23.1283 16.8701 23.8027 17.154 24.3705 17.5385C24.9325 17.923 25.3761 18.4376 25.6896 19.0765C25.9972 19.7094 26.1569 20.502 26.1569 21.4425C26.1569 22.4599 25.9262 23.2999 25.4648 23.9801C24.9975 24.6604 24.3232 25.2105 23.4064 25.6423C24.6545 25.9972 25.5713 26.6301 26.1747 27.5174C26.7898 28.4165 27.0915 29.4931 27.0915 30.7589C27.0915 31.7882 26.8963 32.6695 26.5 33.4089ZM42.9915 30.2857H32.4388C32.4388 31.4333 32.8352 32.5335 33.4326 33.125C34.0359 33.7106 34.8996 34.0064 36.0294 34.0064C36.8456 34.0064 37.5377 33.7993 38.1292 33.3912C38.7148 32.983 39.0698 32.5512 39.1999 32.1017H42.7372C42.1693 33.8585 41.3057 35.1125 40.1345 35.8696C38.9751 36.6268 37.5555 37.0054 35.9051 37.0054C34.7517 37.0054 33.7165 36.8161 32.7878 36.4552C31.8946 36.1063 31.0902 35.5739 30.4277 34.8877C29.7745 34.1831 29.2696 33.3543 28.943 32.4507C28.5821 31.451 28.4047 30.3981 28.4165 29.3393C28.4165 28.245 28.5999 27.2276 28.9548 26.2811C29.635 24.4415 31.0488 22.9686 32.8529 22.2056C33.8171 21.8033 34.8522 21.6022 35.8992 21.6141C37.1414 21.6141 38.218 21.8507 39.1526 22.3357C40.0523 22.7989 40.8335 23.4627 41.4358 24.2759C42.0333 25.0863 42.4532 26.009 42.7194 27.0501C42.9738 28.0734 43.0625 29.15 42.9915 30.2857ZM35.775 24.6308C35.1362 24.6308 34.5979 24.7432 34.1838 24.9621C33.7698 25.1809 33.4267 25.453 33.1664 25.7665C32.9185 26.0692 32.7353 26.4195 32.6281 26.7958C32.5335 27.1093 32.4684 27.4287 32.4448 27.754H38.981C38.8864 26.7307 38.5315 25.9736 38.0583 25.4412C37.5614 24.9147 36.7628 24.6308 35.775 24.6308Z" fill="#FAFAFF"/>
</svg>
