<svg width="413" height="120" viewBox="0 0 413 120" fill="none" xmlns="http://www.w3.org/2000/svg">
<g filter="url(#filter0_d_712_768)">
<rect x="4" width="405" height="112" rx="20" fill="url(#paint0_linear_712_768)" fill-opacity="0.8" shape-rendering="crispEdges"/>
<rect x="6.25" y="2.25" width="400.5" height="107.5" rx="17.75" stroke="white" stroke-width="4.5" shape-rendering="crispEdges"/>
</g>
<path d="M35.9058 79V34.2H44.4818L63.5538 65.816H59.0098L77.7618 34.2H86.2738L86.4018 79H76.6738L76.6098 49.112H78.4018L63.4258 74.264H58.7538L43.4578 49.112H45.6338V79H35.9058ZM117.447 79V72.28L116.807 70.808V58.776C116.807 56.6427 116.145 54.9787 114.823 53.784C113.543 52.5893 111.559 51.992 108.871 51.992C107.036 51.992 105.223 52.2907 103.431 52.888C101.681 53.4427 100.188 54.2107 98.9508 55.192L95.3668 48.216C97.2441 46.8933 99.5054 45.8693 102.151 45.144C104.796 44.4187 107.484 44.056 110.215 44.056C115.463 44.056 119.537 45.2933 122.439 47.768C125.34 50.2427 126.791 54.104 126.791 59.352V79H117.447ZM106.951 79.512C104.263 79.512 101.959 79.064 100.039 78.168C98.1188 77.2293 96.6468 75.9707 95.6228 74.392C94.5988 72.8133 94.0868 71.0427 94.0868 69.08C94.0868 67.032 94.5774 65.24 95.5588 63.704C96.5828 62.168 98.1828 60.9733 100.359 60.12C102.535 59.224 105.372 58.776 108.871 58.776H118.023V64.6H109.959C107.612 64.6 105.991 64.984 105.095 65.752C104.241 66.52 103.815 67.48 103.815 68.632C103.815 69.912 104.305 70.936 105.287 71.704C106.311 72.4293 107.697 72.792 109.447 72.792C111.111 72.792 112.604 72.408 113.927 71.64C115.249 70.8293 116.209 69.656 116.807 68.12L118.343 72.728C117.617 74.9467 116.295 76.632 114.375 77.784C112.455 78.936 109.98 79.512 106.951 79.512ZM156.755 44.056C159.485 44.056 161.917 44.6107 164.051 45.72C166.227 46.7867 167.933 48.4507 169.171 50.712C170.408 52.9307 171.027 55.7893 171.027 59.288V79H161.043V60.824C161.043 58.0507 160.424 56.0027 159.187 54.68C157.992 53.3573 156.285 52.696 154.067 52.696C152.488 52.696 151.059 53.0373 149.779 53.72C148.541 54.36 147.56 55.3627 146.835 56.728C146.152 58.0933 145.811 59.8427 145.811 61.976V79H135.827V44.568H145.363V54.104L143.571 51.224C144.808 48.92 146.579 47.1493 148.883 45.912C151.187 44.6747 153.811 44.056 156.755 44.056ZM180.077 79V44.568H190.061V79H180.077ZM185.069 39.768C183.234 39.768 181.741 39.2347 180.589 38.168C179.437 37.1013 178.861 35.7787 178.861 34.2C178.861 32.6213 179.437 31.2987 180.589 30.232C181.741 29.1653 183.234 28.632 185.069 28.632C186.903 28.632 188.397 29.144 189.549 30.168C190.701 31.1493 191.277 32.4293 191.277 34.008C191.277 35.672 190.701 37.0587 189.549 38.168C188.439 39.2347 186.946 39.768 185.069 39.768ZM200.543 79V43.8C200.543 39.9173 201.695 36.824 203.999 34.52C206.303 32.1733 209.588 31 213.855 31C215.305 31 216.692 31.1493 218.015 31.448C219.38 31.7467 220.532 32.216 221.471 32.856L218.847 40.088C218.292 39.704 217.673 39.4053 216.991 39.192C216.308 38.9787 215.583 38.872 214.815 38.872C213.364 38.872 212.233 39.2987 211.423 40.152C210.655 40.9627 210.271 42.2 210.271 43.864V47.064L210.527 51.352V79H200.543ZM195.231 53.016V45.336H219.103V53.016H195.231ZM224.735 79V44.568H234.719V79H224.735ZM229.727 39.768C227.892 39.768 226.399 39.2347 225.247 38.168C224.095 37.1013 223.519 35.7787 223.519 34.2C223.519 32.6213 224.095 31.2987 225.247 30.232C226.399 29.1653 227.892 28.632 229.727 28.632C231.561 28.632 233.055 29.144 234.207 30.168C235.359 31.1493 235.935 32.4293 235.935 34.008C235.935 35.672 235.359 37.0587 234.207 38.168C233.097 39.2347 231.604 39.768 229.727 39.768ZM261.04 79.512C257.114 79.512 253.658 78.744 250.672 77.208C247.728 75.672 245.445 73.5813 243.824 70.936C242.202 68.248 241.392 65.1973 241.392 61.784C241.392 58.328 242.181 55.2773 243.76 52.632C245.381 49.944 247.578 47.8533 250.352 46.36C253.125 44.824 256.261 44.056 259.76 44.056C263.13 44.056 266.16 44.7813 268.848 46.232C271.578 47.64 273.733 49.688 275.312 52.376C276.89 55.0213 277.68 58.2 277.68 61.912C277.68 62.296 277.658 62.744 277.616 63.256C277.573 63.7253 277.53 64.1733 277.488 64.6H249.52V58.776H272.24L268.4 60.504C268.4 58.712 268.037 57.1547 267.312 55.832C266.586 54.5093 265.584 53.4853 264.304 52.76C263.024 51.992 261.53 51.608 259.824 51.608C258.117 51.608 256.602 51.992 255.28 52.76C254 53.4853 252.997 54.5307 252.272 55.896C251.546 57.2187 251.184 58.7973 251.184 60.632V62.168C251.184 64.0453 251.589 65.7093 252.4 67.16C253.253 68.568 254.426 69.656 255.92 70.424C257.456 71.1493 259.248 71.512 261.296 71.512C263.13 71.512 264.73 71.2347 266.096 70.68C267.504 70.1253 268.784 69.2933 269.936 68.184L275.248 73.944C273.669 75.736 271.685 77.1227 269.296 78.104C266.906 79.0427 264.154 79.512 261.04 79.512ZM295.911 79.512C292.967 79.512 290.129 79.1707 287.399 78.488C284.711 77.7627 282.577 76.8667 280.999 75.8L284.327 68.632C285.905 69.6133 287.761 70.424 289.895 71.064C292.071 71.6613 294.204 71.96 296.295 71.96C298.599 71.96 300.22 71.6827 301.159 71.128C302.14 70.5733 302.631 69.8053 302.631 68.824C302.631 68.0133 302.247 67.416 301.479 67.032C300.753 66.6053 299.772 66.2853 298.535 66.072C297.297 65.8587 295.932 65.6453 294.439 65.432C292.988 65.2187 291.516 64.9413 290.023 64.6C288.529 64.216 287.164 63.6613 285.927 62.936C284.689 62.2107 283.687 61.2293 282.919 59.992C282.193 58.7547 281.831 57.1547 281.831 55.192C281.831 53.016 282.449 51.096 283.687 49.432C284.967 47.768 286.801 46.4667 289.191 45.528C291.58 44.5467 294.439 44.056 297.767 44.056C300.113 44.056 302.503 44.312 304.935 44.824C307.367 45.336 309.393 46.0827 311.015 47.064L307.687 54.168C306.023 53.1867 304.337 52.5253 302.631 52.184C300.967 51.8 299.345 51.608 297.767 51.608C295.548 51.608 293.927 51.9067 292.903 52.504C291.879 53.1013 291.367 53.8693 291.367 54.808C291.367 55.6613 291.729 56.3013 292.455 56.728C293.223 57.1547 294.225 57.496 295.463 57.752C296.7 58.008 298.044 58.2427 299.495 58.456C300.988 58.6267 302.481 58.904 303.975 59.288C305.468 59.672 306.812 60.2267 308.007 60.952C309.244 61.6347 310.247 62.5947 311.015 63.832C311.783 65.0267 312.167 66.6053 312.167 68.568C312.167 70.7013 311.527 72.6 310.247 74.264C308.967 75.8853 307.111 77.1653 304.679 78.104C302.289 79.0427 299.367 79.512 295.911 79.512ZM332.407 79.512C328.353 79.512 325.196 78.488 322.935 76.44C320.673 74.3493 319.543 71.256 319.543 67.16V36.952H329.527V67.032C329.527 68.4827 329.911 69.6133 330.679 70.424C331.447 71.192 332.492 71.576 333.815 71.576C335.393 71.576 336.737 71.1493 337.847 70.296L340.535 77.336C339.511 78.0613 338.273 78.616 336.823 79C335.415 79.3413 333.943 79.512 332.407 79.512ZM314.231 53.016V45.336H338.103V53.016H314.231ZM361.461 79.512C357.791 79.512 354.527 78.744 351.669 77.208C348.853 75.672 346.613 73.5813 344.949 70.936C343.327 68.248 342.517 65.1973 342.517 61.784C342.517 58.328 343.327 55.2773 344.949 52.632C346.613 49.944 348.853 47.8533 351.669 46.36C354.527 44.824 357.791 44.056 361.461 44.056C365.087 44.056 368.33 44.824 371.189 46.36C374.047 47.8533 376.287 49.9227 377.909 52.568C379.53 55.2133 380.341 58.2853 380.341 61.784C380.341 65.1973 379.53 68.248 377.909 70.936C376.287 73.5813 374.047 75.672 371.189 77.208C368.33 78.744 365.087 79.512 361.461 79.512ZM361.461 71.32C363.125 71.32 364.618 70.936 365.941 70.168C367.263 69.4 368.309 68.312 369.077 66.904C369.845 65.4533 370.229 63.7467 370.229 61.784C370.229 59.7787 369.845 58.072 369.077 56.664C368.309 55.256 367.263 54.168 365.941 53.4C364.618 52.632 363.125 52.248 361.461 52.248C359.797 52.248 358.303 52.632 356.981 53.4C355.658 54.168 354.591 55.256 353.781 56.664C353.013 58.072 352.629 59.7787 352.629 61.784C352.629 63.7467 353.013 65.4533 353.781 66.904C354.591 68.312 355.658 69.4 356.981 70.168C358.303 70.936 359.797 71.32 361.461 71.32Z" fill="white"/>
<defs>
<filter id="filter0_d_712_768" x="0" y="0" width="413" height="120" filterUnits="userSpaceOnUse" color-interpolation-filters="sRGB">
<feFlood flood-opacity="0" result="BackgroundImageFix"/>
<feColorMatrix in="SourceAlpha" type="matrix" values="0 0 0 0 0 0 0 0 0 0 0 0 0 0 0 0 0 0 127 0" result="hardAlpha"/>
<feOffset dy="4"/>
<feGaussianBlur stdDeviation="2"/>
<feComposite in2="hardAlpha" operator="out"/>
<feColorMatrix type="matrix" values="0 0 0 0 0 0 0 0 0 0 0 0 0 0 0 0 0 0 0.25 0"/>
<feBlend mode="normal" in2="BackgroundImageFix" result="effect1_dropShadow_712_768"/>
<feBlend mode="normal" in="SourceGraphic" in2="effect1_dropShadow_712_768" result="shape"/>
</filter>
<linearGradient id="paint0_linear_712_768" x1="4" y1="0" x2="65.6607" y2="206.247" gradientUnits="userSpaceOnUse">
<stop offset="0.369792" stop-color="#7C018D"/>
<stop offset="0.645833" stop-color="#1500E1"/>
</linearGradient>
</defs>
</svg>
