<svg width="53" height="53" viewBox="0 0 53 53" fill="none" xmlns="http://www.w3.org/2000/svg">
<path d="M26.5 0C11.8643 0 0 11.8643 0 26.5C0 41.1357 11.8643 53 26.5 53C41.1357 53 53 41.1357 53 26.5C53 11.8643 41.1357 0 26.5 0ZM20.013 37.4837H14.6468V20.2145H20.013V37.4837ZM17.2968 18.0945C15.6019 18.0945 14.506 16.8937 14.506 15.4086C14.506 13.8932 15.635 12.7283 17.3658 12.7283C19.0966 12.7283 20.1566 13.8932 20.1897 15.4086C20.1897 16.8937 19.0966 18.0945 17.2968 18.0945ZM39.612 37.4837H34.2457V27.9133C34.2457 25.6857 33.4673 24.173 31.5267 24.173C30.0444 24.173 29.1638 25.1971 28.7746 26.1826C28.631 26.5331 28.5952 27.03 28.5952 27.5241V37.4809H23.2261V25.7216C23.2261 23.5657 23.1571 21.7631 23.0854 20.2118H27.7477L27.9934 22.6106H28.101C28.8077 21.4843 30.5385 19.8225 33.4342 19.8225C36.9647 19.8225 39.612 22.1882 39.612 27.2729V37.4837Z" fill="#FAFAFF"/>
</svg>
