<?xml version="1.0" encoding="utf-8"?>
<!-- Generator: Adobe Illustrator 25.4.1, SVG Export Plug-In . SVG Version: 6.00 Build 0)  -->
<svg version="1.1" id="Layer_1" xmlns="http://www.w3.org/2000/svg" xmlns:xlink="http://www.w3.org/1999/xlink" x="0px" y="0px"
	 width="683.7px" height="157px" viewBox="0 0 683.7 157" style="enable-background:new 0 0 683.7 157;" xml:space="preserve">
<style type="text/css">
	.st0{fill:#FFFFFF;}
</style>
<g>
	<g>
		<g>
			<g>
				<path class="st0" d="M199.9,150c-1.2-0.7-2.2-1.7-2.9-2.9c-0.7-1.2-1.1-2.7-1.1-4.2c0-1.6,0.4-3,1.1-4.2
					c0.7-1.2,1.7-2.2,2.9-2.9c1.2-0.7,2.7-1,4.2-1c1.4,0,2.6,0.3,3.7,0.8c1.1,0.5,1.9,1.3,2.6,2.4l-1.6,1.1c-0.5-0.8-1.2-1.4-2-1.8
					c-0.8-0.4-1.7-0.6-2.6-0.6c-1.2,0-2.2,0.3-3.1,0.8c-0.9,0.5-1.6,1.3-2.2,2.2c-0.5,1-0.8,2-0.8,3.3c0,1.2,0.3,2.3,0.8,3.3
					c0.5,0.9,1.2,1.7,2.2,2.2c0.9,0.5,2,0.8,3.1,0.8c1,0,1.8-0.2,2.6-0.6c0.8-0.4,1.5-1,2-1.8l1.6,1.1c-0.6,1-1.5,1.8-2.6,2.4
					c-1.1,0.5-2.3,0.8-3.7,0.8C202.6,151.1,201.2,150.7,199.9,150z"/>
				<path class="st0" d="M222.6,135.6c1-0.5,2.2-0.8,3.7-0.8v2.1l-0.5,0c-1.7,0-3,0.5-4,1.6c-1,1-1.4,2.5-1.4,4.4v8.2h-2.2v-16h2.1
					v3.1C220.9,137,221.6,136.2,222.6,135.6z"/>
				<path class="st0" d="M247.7,143.6h-13.4c0.1,1.7,0.8,3,1.9,4c1.2,1,2.6,1.5,4.4,1.5c1,0,1.9-0.2,2.7-0.5
					c0.8-0.4,1.6-0.9,2.2-1.6l1.2,1.4c-0.7,0.9-1.6,1.5-2.7,1.9c-1.1,0.4-2.2,0.7-3.5,0.7c-1.6,0-3.1-0.3-4.4-1s-2.3-1.7-3-2.9
					c-0.7-1.2-1.1-2.6-1.1-4.2c0-1.6,0.3-3,1-4.2c0.7-1.2,1.6-2.2,2.8-2.9c1.2-0.7,2.5-1,4-1c1.5,0,2.8,0.3,4,1
					c1.2,0.7,2.1,1.6,2.8,2.9c0.7,1.2,1,2.6,1,4.2L247.7,143.6z M236.1,138.1c-1,1-1.6,2.3-1.8,3.8h11.3c-0.1-1.6-0.7-2.9-1.8-3.8
					c-1-1-2.3-1.5-3.9-1.5C238.4,136.6,237.1,137.1,236.1,138.1z"/>
				<path class="st0" d="M265.7,136.4c1.1,1,1.7,2.6,1.7,4.6v9.9h-2.1v-2.5c-0.5,0.8-1.2,1.5-2.1,1.9c-0.9,0.5-2.1,0.7-3.4,0.7
					c-1.8,0-3.2-0.4-4.3-1.3c-1.1-0.9-1.6-2-1.6-3.4c0-1.4,0.5-2.5,1.5-3.3c1-0.8,2.6-1.2,4.7-1.2h5.1v-1c0-1.4-0.4-2.4-1.2-3.1
					c-0.8-0.7-1.9-1.1-3.4-1.1c-1,0-2,0.2-2.9,0.5c-0.9,0.3-1.7,0.8-2.4,1.4l-1-1.6c0.8-0.7,1.8-1.2,2.9-1.6
					c1.1-0.4,2.3-0.6,3.6-0.6C263,134.8,264.6,135.3,265.7,136.4z M263.3,148.5c0.9-0.6,1.5-1.4,1.9-2.4v-2.6h-5
					c-2.7,0-4.1,1-4.1,2.9c0,0.9,0.4,1.7,1.1,2.2s1.7,0.8,3,0.8C261.4,149.4,262.4,149.1,263.3,148.5z"/>
				<path class="st0" d="M285.4,149.9c-0.4,0.4-0.9,0.6-1.5,0.8c-0.6,0.2-1.2,0.3-1.9,0.3c-1.5,0-2.7-0.4-3.5-1.2
					c-0.8-0.8-1.2-2-1.2-3.4v-9.7h-2.9v-1.8h2.9v-3.5h2.2v3.5h4.9v1.8h-4.9v9.6c0,1,0.2,1.7,0.7,2.2c0.5,0.5,1.2,0.7,2.1,0.7
					c0.4,0,0.9-0.1,1.3-0.2c0.4-0.1,0.8-0.3,1.1-0.6L285.4,149.9z"/>
				<path class="st0" d="M292.9,131c-0.3-0.3-0.5-0.7-0.5-1.1c0-0.4,0.2-0.8,0.5-1.1c0.3-0.3,0.7-0.5,1.1-0.5c0.4,0,0.8,0.1,1.1,0.4
					c0.3,0.3,0.5,0.6,0.5,1c0,0.4-0.2,0.8-0.5,1.1c-0.3,0.3-0.7,0.5-1.1,0.5C293.6,131.4,293.2,131.3,292.9,131z M292.9,134.9h2.2
					v16h-2.2V134.9z"/>
				<path class="st0" d="M318.2,134.9l-7.1,16h-2.2l-7.1-16h2.3l6,13.6l6.1-13.6H318.2z"/>
				<path class="st0" d="M338.4,143.6H325c0.1,1.7,0.8,3,1.9,4c1.2,1,2.6,1.5,4.4,1.5c1,0,1.9-0.2,2.7-0.5c0.8-0.4,1.6-0.9,2.2-1.6
					l1.2,1.4c-0.7,0.9-1.6,1.5-2.7,1.9c-1.1,0.4-2.2,0.7-3.5,0.7c-1.6,0-3.1-0.3-4.4-1s-2.3-1.7-3-2.9c-0.7-1.2-1.1-2.6-1.1-4.2
					c0-1.6,0.3-3,1-4.2c0.7-1.2,1.6-2.2,2.8-2.9c1.2-0.7,2.5-1,4-1c1.5,0,2.8,0.3,4,1c1.2,0.7,2.1,1.6,2.8,2.9c0.7,1.2,1,2.6,1,4.2
					L338.4,143.6z M326.8,138.1c-1,1-1.6,2.3-1.8,3.8h11.3c-0.1-1.6-0.7-2.9-1.8-3.8c-1-1-2.3-1.5-3.9-1.5
					C329.1,136.6,327.8,137.1,326.8,138.1z"/>
				<path class="st0" d="M368.5,136.4c1.1,1,1.7,2.6,1.7,4.6v9.9h-2.1v-2.5c-0.5,0.8-1.2,1.5-2.1,1.9c-0.9,0.5-2.1,0.7-3.4,0.7
					c-1.8,0-3.2-0.4-4.3-1.3c-1.1-0.9-1.6-2-1.6-3.4c0-1.4,0.5-2.5,1.5-3.3c1-0.8,2.6-1.2,4.7-1.2h5.1v-1c0-1.4-0.4-2.4-1.2-3.1
					c-0.8-0.7-1.9-1.1-3.4-1.1c-1,0-2,0.2-2.9,0.5c-0.9,0.3-1.7,0.8-2.4,1.4l-1-1.6c0.8-0.7,1.8-1.2,2.9-1.6s2.3-0.6,3.6-0.6
					C365.8,134.8,367.4,135.3,368.5,136.4z M366.1,148.5c0.9-0.6,1.5-1.4,1.9-2.4v-2.6h-5c-2.7,0-4.1,1-4.1,2.9
					c0,0.9,0.4,1.7,1.1,2.2c0.7,0.5,1.7,0.8,3,0.8C364.2,149.4,365.2,149.1,366.1,148.5z"/>
				<path class="st0" d="M394.6,134.9V149c0,2.7-0.7,4.7-2,6c-1.3,1.3-3.3,2-6,2c-1.5,0-2.9-0.2-4.2-0.7c-1.3-0.4-2.4-1-3.2-1.8
					l1.1-1.6c0.8,0.7,1.7,1.2,2.8,1.6c1.1,0.4,2.3,0.6,3.5,0.6c2,0,3.5-0.5,4.5-1.4c1-0.9,1.4-2.4,1.4-4.4v-2
					c-0.7,1-1.5,1.8-2.6,2.3c-1.1,0.5-2.3,0.8-3.6,0.8c-1.5,0-2.9-0.3-4.1-1c-1.2-0.7-2.2-1.6-2.9-2.8c-0.7-1.2-1-2.5-1-4
					c0-1.5,0.3-2.8,1-4c0.7-1.2,1.7-2.1,2.9-2.7c1.2-0.6,2.6-1,4.1-1c1.4,0,2.6,0.3,3.7,0.8c1.1,0.5,2,1.3,2.6,2.4v-3.1H394.6z
					 M389.5,147.6c0.9-0.5,1.7-1.2,2.2-2.1c0.5-0.9,0.8-1.9,0.8-3c0-1.1-0.3-2.1-0.8-3c-0.5-0.9-1.2-1.6-2.2-2.1
					c-0.9-0.5-2-0.7-3.1-0.7c-1.2,0-2.2,0.2-3.1,0.7c-0.9,0.5-1.6,1.2-2.2,2.1c-0.5,0.9-0.8,1.9-0.8,3c0,1.1,0.3,2.2,0.8,3
					c0.5,0.9,1.2,1.6,2.2,2.1c0.9,0.5,2,0.7,3.1,0.7C387.6,148.4,388.6,148.1,389.5,147.6z"/>
				<path class="st0" d="M418.2,143.6h-13.4c0.1,1.7,0.8,3,1.9,4c1.2,1,2.6,1.5,4.4,1.5c1,0,1.9-0.2,2.7-0.5
					c0.8-0.4,1.6-0.9,2.2-1.6l1.2,1.4c-0.7,0.9-1.6,1.5-2.7,1.9c-1.1,0.4-2.2,0.7-3.5,0.7c-1.6,0-3.1-0.3-4.4-1s-2.3-1.7-3-2.9
					c-0.7-1.2-1.1-2.6-1.1-4.2c0-1.6,0.3-3,1-4.2c0.7-1.2,1.6-2.2,2.8-2.9c1.2-0.7,2.5-1,4-1c1.5,0,2.8,0.3,4,1
					c1.2,0.7,2.1,1.6,2.8,2.9c0.7,1.2,1,2.6,1,4.2L418.2,143.6z M406.6,138.1c-1,1-1.6,2.3-1.8,3.8h11.3c-0.1-1.6-0.7-2.9-1.8-3.8
					c-1-1-2.3-1.5-3.9-1.5C409,136.6,407.7,137.1,406.6,138.1z"/>
				<path class="st0" d="M439.3,136.5c1.2,1.2,1.8,2.9,1.8,5.1v9.3h-2.2v-9.1c0-1.7-0.4-2.9-1.2-3.8c-0.8-0.9-2-1.3-3.6-1.3
					c-1.7,0-3.1,0.5-4.1,1.5c-1,1-1.5,2.4-1.5,4.2v8.4h-2.2v-16h2.1v3c0.6-1,1.4-1.7,2.4-2.3c1-0.5,2.3-0.8,3.6-0.8
					C436.5,134.8,438.1,135.4,439.3,136.5z"/>
				<path class="st0" d="M453,150c-1.2-0.7-2.2-1.7-2.9-2.9c-0.7-1.2-1.1-2.7-1.1-4.2c0-1.6,0.4-3,1.1-4.2c0.7-1.2,1.7-2.2,2.9-2.9
					c1.2-0.7,2.7-1,4.2-1c1.4,0,2.6,0.3,3.7,0.8c1.1,0.5,1.9,1.3,2.6,2.4l-1.6,1.1c-0.5-0.8-1.2-1.4-2-1.8c-0.8-0.4-1.7-0.6-2.6-0.6
					c-1.2,0-2.2,0.3-3.1,0.8c-0.9,0.5-1.6,1.3-2.2,2.2c-0.5,1-0.8,2-0.8,3.3c0,1.2,0.3,2.3,0.8,3.3c0.5,0.9,1.2,1.7,2.2,2.2
					c0.9,0.5,2,0.8,3.1,0.8c1,0,1.8-0.2,2.6-0.6c0.8-0.4,1.5-1,2-1.8l1.6,1.1c-0.6,1-1.5,1.8-2.6,2.4c-1.1,0.5-2.3,0.8-3.7,0.8
					C455.7,151.1,454.3,150.7,453,150z"/>
				<path class="st0" d="M484.6,134.9l-8,17.9c-0.6,1.5-1.4,2.6-2.3,3.2c-0.9,0.6-1.9,0.9-3.1,0.9c-0.8,0-1.5-0.1-2.2-0.4
					c-0.7-0.2-1.2-0.6-1.7-1.1l1-1.6c0.8,0.8,1.8,1.2,2.9,1.2c0.7,0,1.4-0.2,1.9-0.6c0.5-0.4,1-1.1,1.4-2.1l0.7-1.6l-7.2-16h2.3
					l6,13.6l6-13.6H484.6z"/>
			</g>
		</g>
	</g>
	<g>
		<g>
			<path class="st0" d="M240.7,87.3c-5.2-2.7-9.2-6.5-12.1-11.3c-2.9-4.8-4.4-10.3-4.4-16.4c0-6.1,1.5-11.6,4.4-16.4
				c2.9-4.8,7-8.6,12.1-11.3c5.2-2.7,11-4.1,17.5-4.1c6.5,0,12.3,1.4,17.5,4.1c5.1,2.7,9.2,6.5,12.1,11.3c2.9,4.8,4.4,10.3,4.4,16.4
				c0,6.1-1.5,11.6-4.4,16.4c-2.9,4.8-6.9,8.6-12.1,11.3c-5.1,2.7-11,4.1-17.5,4.1C251.7,91.4,245.8,90,240.7,87.3z M269.5,72
				c2.9-3.1,4.4-7.3,4.4-12.5c0-5.2-1.5-9.4-4.4-12.5c-3-3.1-6.7-4.7-11.3-4.7s-8.4,1.6-11.4,4.7c-3,3.1-4.5,7.3-4.5,12.5
				c0,5.2,1.5,9.4,4.5,12.5c3,3.1,6.8,4.7,11.4,4.7S266.6,75.1,269.5,72z"/>
			<path class="st0" d="M366.4,28.6v61.8h-17v-7.4c-2.4,2.7-5.2,4.7-8.5,6.2c-3.3,1.4-6.9,2.1-10.7,2.1c-8.1,0-14.6-2.3-19.3-7
				c-4.8-4.7-7.1-11.6-7.1-20.8V28.6h17.9v32.3c0,10,4.2,14.9,12.5,14.9c4.3,0,7.7-1.4,10.3-4.2c2.6-2.8,3.9-7,3.9-12.5V28.6H366.4z
				"/>
			<path class="st0" d="M439.2,34.6c4.7,4.6,7.1,11.4,7.1,20.5v35.4h-17.9V57.8c0-4.9-1.1-8.6-3.2-11c-2.1-2.4-5.3-3.6-9.3-3.6
				c-4.5,0-8.1,1.4-10.8,4.2c-2.7,2.8-4,7-4,12.5v30.6H383V28.6h17.1v7.2c2.4-2.6,5.3-4.6,8.9-6c3.5-1.4,7.4-2.1,11.6-2.1
				C428.3,27.7,434.5,30,439.2,34.6z"/>
			<path class="st0" d="M502.3,87.5c-1.8,1.3-3.9,2.3-6.5,2.9c-2.6,0.6-5.3,1-8.1,1c-7.4,0-13-1.9-17.1-5.6c-4-3.8-6-9.3-6-16.6
				V43.8h-9.5V30h9.5V14.9h17.9V30H498v13.8h-15.4V69c0,2.6,0.7,4.6,2,6c1.3,1.4,3.2,2.1,5.7,2.1c2.8,0,5.2-0.8,7.2-2.3L502.3,87.5z
				"/>
			<path class="st0" d="M559.5,34.5c5.1,4.6,7.7,11.4,7.7,20.6v35.3h-16.8v-7.7c-3.4,5.7-9.7,8.6-18.9,8.6c-4.8,0-8.9-0.8-12.4-2.4
				c-3.5-1.6-6.2-3.8-8-6.7c-1.8-2.8-2.8-6.1-2.8-9.7c0-5.7,2.2-10.3,6.5-13.6c4.3-3.3,11-4.9,20.1-4.9h14.3c0-3.9-1.2-6.9-3.6-9
				C543.3,43,539.7,42,535,42c-3.3,0-6.5,0.5-9.7,1.6c-3.2,1-5.9,2.4-8.1,4.2l-6.4-12.5c3.4-2.4,7.4-4.2,12.1-5.5
				c4.7-1.3,9.6-2,14.5-2C547,27.7,554.3,30,559.5,34.5z M544.2,77.2c2.4-1.4,4.1-3.5,5.1-6.3v-6.3h-12.3c-7.4,0-11,2.4-11,7.2
				c0,2.3,0.9,4.1,2.7,5.5c1.8,1.3,4.3,2,7.4,2C539.1,79.3,541.8,78.6,544.2,77.2z"/>
			<path class="st0" d="M584.3,17.1c-2.1-1.9-3.1-4.3-3.1-7.1c0-2.8,1-5.2,3.1-7.1c2.1-1.9,4.8-2.9,8-2.9c3.3,0,6,0.9,8,2.8
				c2.1,1.8,3.1,4.1,3.1,6.9c0,3-1,5.5-3.1,7.4c-2.1,2-4.8,2.9-8,2.9C589,20,586.4,19,584.3,17.1z M583.4,28.6h17.9v61.8h-17.9V28.6
				z"/>
			<path class="st0" d="M674.1,34.6c4.7,4.6,7.1,11.4,7.1,20.5v35.4h-17.9V57.8c0-4.9-1.1-8.6-3.2-11c-2.1-2.4-5.3-3.6-9.3-3.6
				c-4.5,0-8.1,1.4-10.8,4.2c-2.7,2.8-4,7-4,12.5v30.6H618V28.6h17.1v7.2c2.4-2.6,5.3-4.6,8.9-6c3.5-1.4,7.4-2.1,11.6-2.1
				C663.2,27.7,669.4,30,674.1,34.6z"/>
		</g>
		<path class="st0" d="M215.1,69.8L215.1,69.8L185.8,30c0,0-2.4-3.5-6.9-3.5c-4.2,0-6.4,2.9-6.4,2.9l-19.9,24.9c0,0-2.3,3.3-6.8,3.3
			c-4.8,0-7-3.6-7-3.6L104.5,7.4c0,0-4.1-6-11.8-6c-7.2,0-11,4.9-11,4.9L3.6,104.5c0,0,0,0,0,0.1c-1,1.2-1.6,2.7-1.6,4.3
			c0,3.7,3,6.8,6.8,6.8c1.9,0,3.6-0.8,4.9-2.1c0.1-0.1,0.3-0.3,0.4-0.4l43.7-53.7c0,0,3.9-5.4,11.4-5.4c7.4,0,11.3,5.3,11.3,5.3
			l32.8,40.4c0,0,1.4,1.9,4,2.7c0,0,0,0,0.1,0c0.2,0.1,0.5,0.1,0.7,0.2c0,0,0.1,0,0.1,0c0.2,0,0.5,0.1,0.7,0.1c0,0,0.1,0,0.1,0
			c0.3,0,0.6,0,0.9,0c0.3,0,0.6,0,0.9,0c0,0,0.1,0,0.1,0c0.2,0,0.5-0.1,0.7-0.1c0,0,0.1,0,0.1,0c0.2-0.1,0.5-0.1,0.7-0.2
			c0,0,0.1,0,0.1,0c2.7-0.9,4.1-2.8,4.1-2.8l24-29.5l7.7-9.5c0,0,2.3-3.2,6.7-3.2c4.3,0,6.6,3.1,6.6,3.1l21.2,26.1
			c2.5,3.3,6.5,5.4,11,5.4c7.7,0,13.9-6.2,13.9-13.9C217.8,75,216.8,72.2,215.1,69.8z"/>
	</g>
</g>
</svg>
